# xmcd
#
# Track frame offsets:
#	150
#	29102
#	50232
#	71970
#	100422
#	123140
#	147554
#	171345
#	195294
#	218760
#	245979
#	272185
#
# Disc length: 3897 seconds
#
# Revision: 2416787449
# Processed by: cddbd v1.5.2PL0 Copyright (c) Steve Scherf et al.
# Submitted via: EZCDAudioConverter 8.0.2.1
#
DISCID=c90f370c
DTITLE=Don Hồ - st. Trịnh Công Sơn. Hạ Trắng
DYEAR=2003
DGENRE=World Pop
TTITLE0=Don Hồ - Hạ Trắng
TTITLE1=Don Hồ - Thấy ta là thác đổ
TTITLE2=Don Hồ - Tình xót xa vừa
TTITLE3=Don Hồ - Tưởi đá buồn, lời buồn thánh
TTITLE4=Don Hồ - Cúi xuống thật gần
TTITLE5=Don Hồ - Xin trả nợ người
TTITLE6=Don Hồ - Nghe những tàn phai
TTITLE7=Don Hồ - Chiều một mình qua phố
TTITLE8=Don Hồ - Phôi pha
TTITLE9=Don Hồ - Tình sầu
TTITLE10=Soundtrack - Hạ Trắng
TTITLE11=Soundtrack - Thấy ta là thác đổ
EXTD=
EXTT0=
EXTT1=
EXTT2=
EXTT3=
EXTT4=
EXTT5=
EXTT6=
EXTT7=
EXTT8=
EXTT9=
EXTT10=
EXTT11=
PLAYORDER=
